<?xml version="1.0" encoding="UTF-8"?>
<svg width="25px" height="25px" viewBox="0 0 25 25" version="1.1" xmlns="http://www.w3.org/2000/svg" xmlns:xlink="http://www.w3.org/1999/xlink">
    <!-- Generator: Sketch 53.2 (72643) - https://sketchapp.com -->
    <title>Facebook</title>
    <desc>Created with Sketch.</desc>
    <g id="Facebook" stroke="none" stroke-width="1" fill="none" fill-rule="evenodd">
        <path d="M8.5,9.89069216 L10.6715385,9.89069216 C10.6715385,9.05992293 10.6415385,8.25146139 10.6830769,7.44761524 C10.71,6.92376909 10.7669231,6.37838447 10.9423077,5.89069216 C11.3546154,4.74299986 12.2207692,4.04376909 13.3853846,3.71530755 C14.5992308,3.37299986 15.8253846,3.51838447 17.0415385,3.61376909 L17.0415385,6.4691537 C16.3623077,6.4691537 15.7353846,6.46607678 15.1076923,6.46992293 C14.1730769,6.47607678 13.8823077,6.77299986 13.8792308,7.71761524 C13.8769231,8.4291537 13.8784615,9.14069216 13.8784615,9.89146139 L17.1153846,9.89146139 C17.0692308,10.916846 17.0246154,11.9006922 16.9784615,12.9206922 L13.8915385,12.9206922 L13.8915385,21.1922306 L10.6815385,21.1922306 L10.6815385,12.9599229 L8.5,12.9599229 L8.5,9.89069216 Z" id="Fill-10" fill="#FEFEFE"></path>
    </g>
</svg>