<?xml version="1.0" encoding="UTF-8"?>
<svg width="154px" height="42px" viewBox="0 0 154 42" version="1.1" xmlns="http://www.w3.org/2000/svg" xmlns:xlink="http://www.w3.org/1999/xlink">
    <!-- Generator: Sketch 53.2 (72643) - https://sketchapp.com -->
    <title>ICU Logo</title>
    <desc>Created with Sketch.</desc>
    <g id="Symbols" stroke="none" stroke-width="1" fill="none" fill-rule="evenodd">
        <g id="ScrollNav" transform="translate(-121.000000, -31.000000)" fill="#4F473E">
            <g id="ICU-Logo-Grey" transform="translate(121.000000, 31.000000)">
                <g id="Asset-1">
                    <path d="M1.81511983,1.94261438 C1.66223537,1.40511721 1.20484281,1.00967696 0.650893246,0.936078431 L0.167755991,0.936078431 L0.167755991,0 L5.42187364,0 L5.42187364,0.922657952 L3.04980392,0.922657952 L6.65655773,15.0980392 L6.73037037,15.0980392 L10.9410458,0 L12.0549455,0 L16.268976,15.0980392 L16.3159477,15.0980392 L19.5603486,2.48614379 C19.8254031,1.41921569 19.5603486,0.922657952 18.6645316,0.922657952 L17.5741176,0.922657952 L17.5741176,0 L22.6067974,0 L22.6067974,0.922657952 L22.1437908,0.922657952 C21.5587668,0.964955099 21.0733656,1.39139517 20.9560784,1.96610022 L16.9299346,17.3996514 L15.4335512,17.3996514 L11.3772113,2.81159041 L11.3537255,2.81159041 L7.28732026,17.3862309 L5.78422658,17.3862309 L1.81511983,1.94261438 Z" id="Path"></path>
                    <path d="M21.7646623,10.9544662 C21.7646623,6.88135076 24.2105447,4.2979085 27.6461874,4.2979085 C30.8905882,4.2979085 33.0714161,6.11302832 33.0714161,10.3572549 C33.0714161,10.6290196 33.0479303,10.9041394 33.0479303,10.9544662 L23.1939434,10.9544662 C23.2174292,14.5779956 24.8715033,16.5407407 28.0588671,16.5407407 C30.0920697,16.5407407 31.2797821,15.81939 31.9340305,15.0242266 L32.7560349,15.0242266 L32.7560349,16.0307625 C31.8736383,16.7755991 30.3604793,17.4835294 27.9615686,17.4835294 C23.9186492,17.4835294 21.7646623,14.9772549 21.7646623,10.9544662 Z M31.6656209,9.9848366 C31.5951634,6.55925926 30.0216122,5.24405229 27.6394771,5.24405229 C25.1633987,5.24405229 23.4858388,6.9551634 23.240915,9.9848366 L31.6656209,9.9848366 Z" id="Shape" fill-rule="nonzero"></path>
                    <path d="M38.0101525,13.7325054 C38.0101525,11.1255773 40.1171678,9.96135076 43.0428322,9.96135076 C44.1529708,9.9407709 45.2606126,10.0740041 46.3342048,10.3572549 L46.3342048,8.00867102 C46.3342048,5.92514161 45.0995207,5.30444444 43.3145969,5.30444444 C41.4525054,5.30444444 40.264793,5.92514161 39.5400871,6.59616558 L38.835512,6.59616558 L38.835512,5.39167756 C40.2461476,4.62947368 41.8326457,4.25223197 43.4353813,4.2979085 C46.0020479,4.2979085 47.7467102,5.11655773 47.7467102,7.89795207 L47.7467102,15.4335512 C47.7467102,16.2018736 48.0620915,16.5239651 48.7532462,16.5239651 C48.964181,16.5183455 49.1741739,16.4936405 49.3806536,16.4501525 L49.3806536,17.2688017 C49.0377736,17.4181912 48.6676036,17.4947387 48.2935948,17.4935948 C47.0823965,17.4935948 46.3543355,16.9701961 46.3543355,15.7556427 L46.3543355,15.4805229 C45.3918311,16.7973568 43.844688,17.5583907 42.2141176,17.5170806 C39.704488,17.5070153 38.0101525,16.3159477 38.0101525,13.7325054 Z M46.3375599,14.4035294 L46.3375599,11.2765577 C45.3369295,11.0325581 44.3109901,10.9075534 43.2810458,10.9041394 C40.8854902,10.9041394 39.3589107,11.7227887 39.3589107,13.7325054 C39.3589107,15.7422222 40.4962963,16.5138998 42.3785185,16.5138998 C44.2607407,16.5138998 45.3712854,15.6214379 46.3375599,14.4035294 Z" id="Shape" fill-rule="nonzero"></path>
                    <path d="M50.1892375,16.4904139 L51.2528105,16.4904139 C51.6374458,16.4664416 51.9409515,16.1542228 51.9540305,15.7690632 L51.9540305,6.1096732 C51.9319847,5.72475562 51.6358994,5.41167026 51.2528105,5.36819172 L50.0684532,5.36819172 L50.0684532,4.42204793 L52.9236601,4.42204793 C53.2155556,4.42204793 53.3598257,4.59651416 53.3598257,5.3145098 L53.3598257,6.9551634 C54.3261002,5.66344227 55.6345969,4.34823529 57.5470153,4.34823529 C57.7518989,4.34427414 57.9563229,4.36912125 58.1542919,4.42204793 L58.1542919,5.61311547 C58.1542919,5.61311547 57.81878,5.58962963 57.597342,5.58962963 C55.7318954,5.58962963 54.6179956,6.45860566 53.3598257,7.89795207 L53.3598257,16.4904139 L55.6949891,16.4904139 L55.6949891,17.3828758 L50.1892375,17.3828758 L50.1892375,16.4904139 Z" id="Path"></path>
                    <path d="M58.5166449,10.9511111 C58.5166449,6.88135076 60.9625272,4.2979085 64.3981699,4.2979085 C67.6425708,4.2979085 69.8233987,6.1096732 69.8233987,10.3572549 C69.8233987,10.6290196 69.7999129,10.9007843 69.7999129,10.9511111 L59.9459259,10.9511111 C59.9694118,14.5779956 61.6234858,16.5373856 64.8108497,16.5373856 C66.8440523,16.5373856 68.0317647,15.81939 68.6860131,15.0242266 L69.5080174,15.0242266 L69.5080174,16.0307625 C68.6122004,16.7521133 67.1124619,17.4734641 64.7135512,17.4734641 C60.6706318,17.4835294 58.5166449,14.9738998 58.5166449,10.9511111 Z M68.4176035,9.9848366 C68.347146,6.55590414 66.7735948,5.24069717 64.3914597,5.24069717 C61.9220915,5.24069717 60.227756,6.9551634 59.9861874,9.9848366 L68.4176035,9.9848366 Z" id="Shape" fill-rule="nonzero"></path>
                    <path d="M76.3356863,14.5779956 L76.3356863,5.36819172 L74.5205664,5.36819172 L74.5205664,4.42204793 L76.3356863,4.42204793 L76.3356863,0.845490196 L77.7381264,0.845490196 L77.7381264,4.42204793 L81.032854,4.42204793 L81.032854,5.36819172 L77.7381264,5.36819172 L77.7381264,14.4538562 C77.7381264,15.9905011 78.1742919,16.5138998 79.4156863,16.5138998 C79.8248835,16.5298093 80.2316866,16.4445304 80.6000436,16.2656209 L81.2710675,16.2656209 L81.2710675,17.2084096 C80.6617892,17.4049545 80.0256841,17.50569 79.3854902,17.5070153 C77.4026144,17.5070153 76.3356863,16.688366 76.3356863,14.5779956 Z" id="Path"></path>
                    <path d="M85.8273203,16.4870588 L88.004793,16.4870588 L88.004793,17.3828758 L82.6366013,17.3828758 L82.6366013,16.4870588 L83.7035294,16.4870588 C84.0941905,16.4732172 84.4076835,16.1597243 84.4215251,15.7690632 L84.4215251,1.67755991 C84.4010594,1.29134627 84.1045831,0.976428899 83.720305,0.932723312 L82.5560784,0.932723312 L82.5560784,0 L85.485098,0 C85.7300218,0 85.82061,0.150980392 85.82061,0.449586057 L85.82061,6.71023965 C87.1995643,5.46884532 89.1354684,4.30126362 91.1888017,4.30126362 C93.0777342,4.30126362 94.5808279,4.94544662 94.5808279,7.52888889 L94.5808279,15.7690632 C94.6017299,16.1515152 94.9034135,16.4589451 95.2854031,16.4870588 L96.2315468,16.4870588 L96.2315468,17.3828758 L91.0076253,17.3828758 L91.0076253,16.4870588 L93.185098,16.4870588 L93.185098,7.94492375 C93.185098,5.88488017 92.1785621,5.4654902 90.7392157,5.4654902 C88.9240959,5.4654902 87.2532462,6.40827887 85.8273203,7.59934641 L85.8273203,16.4870588 Z" id="Path"></path>
                    <path d="M97.1340741,10.9511111 C97.1340741,6.87799564 99.5766013,4.2979085 103.015599,4.29455338 C106.26,4.29455338 108.437473,6.1096732 108.437473,10.3538998 C108.437473,10.6290196 108.413987,10.9007843 108.413987,10.9511111 L98.56,10.9511111 C98.586841,14.5746405 100.23756,16.5373856 103.428279,16.5373856 C105.461481,16.5373856 106.645839,15.8160349 107.300087,15.0242266 L108.125447,15.0242266 L108.125447,16.0307625 C107.22963,16.7755991 105.726536,17.4801743 103.337691,17.4801743 C99.288061,17.4801743 97.1340741,14.9738998 97.1340741,10.9511111 Z M107.028322,9.98148148 C106.95451,6.55590414 105.380959,5.24069717 103.002179,5.24069717 C100.53281,5.24069717 98.8384749,6.95180828 98.5969063,9.98148148 L107.028322,9.98148148 Z" id="Shape" fill-rule="nonzero"></path>
                    <path d="M113.500349,14.8732462 L114.506885,14.8732462 C114.86674,14.7938631 115.136375,14.4945687 115.177908,14.1284096 L115.177908,3.32827887 C115.134897,2.96749196 114.863625,2.6758743 114.506885,2.6069281 L113.517124,2.6069281 L113.517124,0 L121.455338,0 L121.455338,2.6069281 L120.448802,2.6069281 C120.094138,2.67436158 119.827148,2.96873601 119.794553,3.32827887 L119.794553,14.1284096 C119.794553,14.4270153 120.130065,14.8732462 120.448802,14.8732462 L121.455338,14.8732462 L121.455338,17.3795207 L113.500349,17.3795207 L113.500349,14.8732462 Z" id="Path"></path>
                    <path d="M121.972026,10.9007843 C121.972026,6.62971678 124.656122,4.09660131 128.970806,4.09660131 C131.004009,4.09660131 132.456776,4.36836601 133.376078,4.76762527 L133.376078,8.16971678 L130.953682,8.16971678 C130.544357,7.34771242 130.084706,6.90148148 128.970806,6.90148148 C127.323442,6.90148148 126.380654,8.11938998 126.380654,10.9276253 C126.380654,13.7358606 127.202658,14.9000871 128.994292,14.9000871 C129.976041,14.9412903 130.906364,14.460177 131.440174,13.635207 L133.399564,13.635207 L133.399564,16.4166013 C132.43329,17.0372985 130.953682,17.5808279 128.850022,17.5808279 C124.250153,17.5808279 121.972026,15.1215251 121.972026,10.9007843 Z" id="Path"></path>
                    <path d="M134.204793,10.9242702 C134.204793,6.72701525 136.794946,4.09660131 140.837865,4.09660131 C144.880784,4.09660131 146.877081,6.13315904 146.877081,10.6256645 C146.877081,11.1490632 146.830109,11.5952941 146.830109,11.7429194 L138.566449,11.7429194 C138.73756,13.9271024 139.633377,14.896732 141.401525,14.896732 C142.850937,14.896732 143.458214,14.3766885 144.038649,13.6318519 L146.387233,13.6318519 L146.387233,16.3360784 C145.296819,17.0071024 143.773595,17.5774728 140.988845,17.5774728 C136.328584,17.5774728 134.204793,15.0208715 134.204793,10.9242702 Z M142.726797,9.45808279 C142.606013,7.44501089 142.055773,6.67668845 140.837865,6.68004357 C139.619956,6.68339869 138.824793,7.47185185 138.61342,9.45808279 L142.726797,9.45808279 Z" id="Shape" fill-rule="nonzero"></path>
                    <path d="M0,32.2796078 C0,26.5054466 3.22091503,23.267756 8.35089325,23.267756 C9.31605809,23.2614121 10.2800741,23.3354809 11.2329412,23.4891939 L14.5008279,23.4891939 L14.5008279,29.3740741 L11.4979956,29.3740741 L11.0383442,26.6698475 C10.3609064,26.4408089 9.64975918,26.3273882 8.9346841,26.3343355 C6.58610022,26.3343355 4.90854031,27.9515033 4.90854031,32.0715904 C4.90854031,36.0440523 6.16671024,38.0302832 8.80383442,38.0302832 C10.4813943,38.0302832 11.6120697,37.184793 12.460915,36.0943791 L14.6652288,36.0943791 L14.6652288,39.254902 C12.8375008,40.4920763 10.6716253,41.1331661 8.46496732,41.0901525 C3.10013072,41.0935076 0,37.9900218 0,32.2796078 Z" id="Path"></path>
                    <path d="M16.3662745,38.3624401 L17.1111111,38.3624401 C17.4274975,38.3117968 17.6730749,38.0593979 17.7150327,37.7417429 L17.7150327,31.1120261 C17.6649936,30.7937125 17.425538,30.5382932 17.1111111,30.4678431 L16.2924619,30.4678431 L16.2924619,27.8105882 L21.1607407,27.8105882 C21.5969063,27.8105882 21.8854466,28.1830065 21.9827451,29.6491939 C22.8047495,28.5554248 23.7508932,27.6596078 25.394902,27.6596078 C25.6597716,27.6671472 25.9216031,27.7181533 26.1699346,27.8105882 L26.1699346,31.0885403 L25.5894989,31.0885403 C24.3673862,31.0449481 23.1489411,31.2468814 22.0062309,31.6823965 L22.0062309,38.3624401 L23.6066231,38.3624401 L23.6066231,40.8720697 L16.3662745,40.8720697 L16.3662745,38.3624401 Z" id="Path"></path>
                    <path d="M26.4853159,34.4134641 C26.4853159,30.2195643 29.0754684,27.5857952 33.1183878,27.5857952 C37.1613072,27.5857952 39.1576035,29.6223529 39.1576035,34.1148584 C39.1576035,34.6382571 39.1106318,35.084488 39.1106318,35.2321133 L30.8436166,35.2321133 C31.0147277,37.4162963 31.9105447,38.3825708 33.6786928,38.3825708 C35.1281046,38.3825708 35.7353813,37.8625272 36.315817,37.1176906 L38.6644009,37.1176906 L38.6644009,39.8252723 C37.5739869,40.4962963 36.0507625,41.0666667 33.2660131,41.0666667 C28.615817,41.0700218 26.4853159,38.5134205 26.4853159,34.4134641 Z M35.0073203,32.9506318 C34.8865359,30.9375599 34.3362963,30.1692375 33.1183878,30.1692375 C31.9004793,30.1692375 31.1053159,30.9644009 30.8939434,32.9506318 L35.0073203,32.9506318 Z" id="Shape" fill-rule="nonzero"></path>
                    <path d="M47.3575163,39.452854 C46.4113725,40.5969499 45.2270153,41.019695 43.6668845,41.019695 C41.3921133,41.019695 39.6239651,39.7514597 39.6239651,37.1948584 C39.6239651,34.3631373 41.6571678,33.0982571 44.6096732,33.0982571 C45.4475253,33.0819866 46.284343,33.1653305 47.1025272,33.3465359 L47.1025272,32.2796078 C47.1025272,31.135512 46.4986057,30.6020479 45.0894553,30.6020479 C44.0749963,30.5694686 43.0898997,30.9453766 42.3550327,31.6454902 L40.4895861,31.6454902 L40.4895861,28.5185185 C41.7511111,27.9984749 43.5091939,27.5757298 46.059085,27.5757298 C49.6658388,27.5757298 51.4272767,28.7936383 51.4272767,31.7964706 L51.4272767,37.7316776 C51.4601672,38.0451034 51.6971926,38.2985699 52.0077124,38.3523747 L52.5881481,38.3523747 L52.5881481,40.4627451 C51.810951,40.8870766 50.9330912,41.0923357 50.0483224,41.0566013 C48.494902,41.0666667 47.6963834,40.4728105 47.3575163,39.452854 Z M47.1125926,37.7752941 L47.1125926,35.3898039 C46.6189493,35.2900653 46.1164699,35.2406043 45.612854,35.2421786 C44.4519826,35.2421786 43.7474074,35.7387364 43.7474074,36.8559913 C43.7474074,37.9732462 44.4184314,38.4698039 45.3477996,38.4698039 C46.001049,38.4776719 46.6325269,38.2351652 47.1125926,37.7920697 L47.1125926,37.7752941 Z" id="Shape" fill-rule="nonzero"></path>
                    <path d="M53.5309368,38.3624401 L54.2791285,38.3624401 C54.5922022,38.3043239 54.8351453,38.0560119 54.8864052,37.7417429 L54.8864052,31.1120261 C54.8362687,30.7919009 54.5953813,30.5350431 54.2791285,30.464488 L53.4571242,30.464488 L53.4571242,27.8072331 L58.3220479,27.8072331 C58.7582135,27.8072331 59.0501089,28.1830065 59.1474074,29.595512 C60.1874946,28.588976 61.5899346,27.5824401 63.5761656,27.5824401 C64.9819608,27.5824401 66.2871024,28.0789978 66.6762963,29.6928105 C67.7398693,28.6258824 69.1691503,27.5824401 71.2023529,27.5824401 C72.8799129,27.5824401 74.4467538,28.3004357 74.4467538,30.7832244 L74.4467538,37.7383878 C74.4824741,38.0602639 74.733012,38.3163385 75.0540305,38.359085 L75.5841394,38.359085 L75.5841394,40.8653595 L69.048366,40.8653595 L69.048366,38.359085 L70.1220044,38.359085 L70.1220044,32.3198693 C70.1220044,31.1791285 69.8301089,30.9308497 68.7162092,30.9308497 C68.076171,30.9468593 67.4410441,31.0472612 66.8272767,31.2294553 L66.8272767,38.3557298 L67.9176906,38.3557298 L67.9176906,40.8620044 L61.4221786,40.8620044 L61.4221786,38.3557298 L62.5125926,38.3557298 L62.5125926,32.3165142 C62.5125926,31.1757734 62.1972113,30.9274946 61.0833115,30.9274946 C60.4357268,30.9452171 59.7930562,31.0455639 59.1708932,31.2261002 L59.1708932,38.3523747 L60.284793,38.3523747 L60.284793,40.8586492 L53.5309368,40.8586492 L53.5309368,38.3624401 Z" id="Path"></path>
                    <path d="M80.2813072,34.3631373 L80.2813072,26.8141176 C80.2465418,26.4502154 79.9710055,26.1553916 79.6102832,26.096122 L78.8117647,26.096122 L78.8117647,23.4858388 L86.7298475,23.4858388 L86.7298475,26.0927669 L84.9147277,26.0927669 L84.9147277,34.634902 C84.9147277,37.268671 85.9548148,38.0873203 87.8672331,38.0873203 C89.7796514,38.0873203 90.8465795,37.268671 90.8465795,34.634902 L90.8465795,26.0927669 L89.0448802,26.0927669 L89.0448802,23.4858388 L95.7282789,23.4858388 L95.7282789,26.0927669 L94.9498911,26.0927669 C94.5926051,26.1607269 94.3208556,26.4528576 94.2788671,26.8141176 L94.2788671,34.3631373 C94.2788671,38.7583442 92.0779085,41.0733769 87.3538998,41.0733769 C82.7037037,41.0666667 80.2813072,38.7583442 80.2813072,34.3631373 Z" id="Path"></path>
                    <path d="M95.9966885,38.359085 L96.7448802,38.359085 C97.0579538,38.3009688 97.3008969,38.0526568 97.3521569,37.7383878 L97.3521569,31.108671 C97.3100978,30.7853256 97.0651851,30.5255288 96.7448802,30.464488 L95.9228758,30.464488 L95.9228758,27.8072331 L100.7878,27.8072331 C101.223965,27.8072331 101.515861,28.1427451 101.613159,29.5451852 C102.826356,28.2798533 104.507072,27.5699476 106.26,27.5824401 C108.004662,27.5824401 109.551373,28.3037908 109.554728,30.7865795 L109.554728,37.7383878 C109.598751,38.0550366 109.843325,38.3064041 110.158649,38.359085 L110.718954,38.359085 L110.718954,40.8653595 L104.059041,40.8653595 L104.059041,38.3557298 L105.266885,38.3557298 L105.266885,32.4003922 C105.266885,31.2328105 104.783747,30.9342048 103.646362,30.9342048 C102.963636,30.9583589 102.286945,31.0711407 101.63329,31.2697168 L101.63329,38.3691503 L102.867974,38.3691503 L102.867974,40.87878 L95.9966885,40.87878 L95.9966885,38.359085 Z" id="Path"></path>
                    <path d="M111.852985,38.359085 L112.651503,38.359085 C112.963337,38.3066311 113.20203,38.0528484 113.235294,37.7383878 L113.235294,31.108671 C113.235294,30.8603922 112.923268,30.464488 112.654858,30.464488 L111.782527,30.464488 L111.782527,27.8072331 L116.915861,27.8072331 C117.32854,27.8072331 117.586885,28.2266231 117.586885,29.1224401 L117.586885,37.7383878 C117.622605,38.0602639 117.873143,38.3163385 118.194161,38.359085 L118.965839,38.359085 L118.965839,40.8653595 L111.852985,40.8653595 L111.852985,38.359085 Z M113.195033,24.9016993 C113.175936,24.0248084 113.68964,23.2236435 114.4945,22.8750699 C115.299359,22.5264962 116.235139,22.6999093 116.861653,23.3137362 C117.488166,23.9275631 117.680684,24.8596005 117.348646,25.6714214 C117.016608,26.4832423 116.226118,27.0132259 115.34902,27.0120697 C114.782476,27.0257423 114.234663,26.8087893 113.831103,26.4109226 C113.427544,26.0130558 113.20283,25.4683797 113.208453,24.9016993 L113.195033,24.9016993 Z" id="Shape" fill-rule="nonzero"></path>
                    <path d="M119.311416,34.4101089 C119.311416,30.2162092 122.314248,27.5824401 126.236383,27.5824401 C130.158519,27.5824401 133.111024,30.212854 133.111024,34.4101089 C133.111024,38.6073638 130.131678,41.0633115 126.236383,41.0633115 C122.341089,41.0633115 119.311416,38.583878 119.311416,34.4101089 Z M128.752723,34.4369499 C128.752723,31.7293682 127.685795,30.4611329 126.236383,30.4611329 C124.786972,30.4611329 123.693203,31.7293682 123.693203,34.4369499 C123.693203,37.1445316 124.756776,38.359085 126.236383,38.359085 C127.715991,38.359085 128.752723,37.1176906 128.752723,34.4369499 Z" id="Shape" fill-rule="nonzero"></path>
                    <path d="M133.765272,38.359085 L134.516819,38.359085 C134.828588,38.2997053 135.069923,38.0516657 135.120741,37.7383878 L135.120741,31.108671 C135.080446,30.7850311 134.836868,30.5238619 134.516819,30.4611329 L133.69146,30.4611329 L133.69146,27.8072331 L138.566449,27.8072331 C138.999259,27.8072331 139.291155,28.1427451 139.388453,29.5451852 C140.60165,28.2798533 142.282367,27.5699476 144.035294,27.5824401 C145.779956,27.5824401 147.330022,28.3004357 147.330022,30.7832244 L147.330022,37.7383878 C147.374046,38.0550366 147.618619,38.3064041 147.933943,38.359085 L148.490893,38.359085 L148.490893,40.8653595 L141.827625,40.8653595 L141.827625,38.359085 L143.038824,38.359085 L143.038824,32.4003922 C143.038824,31.2328105 142.552331,30.9342048 141.414946,30.9342048 C140.732216,30.958321 140.05552,31.0711037 139.401874,31.2697168 L139.401874,38.3725054 L140.636558,38.3725054 L140.636558,40.87878 L133.765272,40.87878 L133.765272,38.359085 Z" id="Path"></path>
                    <path d="M149.333028,38.8556427 C149.328545,38.2758546 149.556192,37.7183678 149.96523,37.3074392 C150.374267,36.8965106 150.930699,36.666295 151.510501,36.6681046 C152.093033,36.6654297 152.65272,36.8945066 153.066207,37.3048467 C153.479694,37.7151869 153.713039,38.2731074 153.714815,38.8556427 C153.714815,40.0656396 152.733918,41.0465359 151.523922,41.0465359 C150.313925,41.0465359 149.333028,40.0656396 149.333028,38.8556427 L149.333028,38.8556427 Z" id="Path"></path>
                </g>
            </g>
        </g>
    </g>
</svg>