<?xml version="1.0" encoding="UTF-8"?>
<svg width="25px" height="25px" viewBox="0 0 25 25" version="1.1" xmlns="http://www.w3.org/2000/svg" xmlns:xlink="http://www.w3.org/1999/xlink">
    <!-- Generator: Sketch 53.2 (72643) - https://sketchapp.com -->
    <title>Instagram</title>
    <desc>Created with Sketch.</desc>
    <g id="Instagram" stroke="none" stroke-width="1" fill="none" fill-rule="evenodd">
        <g id="Group" transform="translate(4.500000, 4.500000)" fill="#FEFEFE">
            <path d="M15.7676154,8.07476923 C15.7676154,9.12476923 15.7737692,10.1747692 15.7660769,11.2247692 C15.7483846,13.7355385 13.693,15.8870769 11.1822308,15.9432308 C8.99530769,15.9924615 6.80607692,15.9909231 4.61992308,15.944 C2.093,15.8893846 0.0606923077,13.7716923 0.023,11.1886154 C-0.00776923077,9.13246154 -0.00623076923,7.07553846 0.0183846154,5.01938462 C0.0522307692,2.27861538 2.17761538,0.203230769 4.91761538,0.200153846 C6.91530769,0.197076923 8.91376923,0.196307692 10.9114615,0.199384615 C13.6353077,0.203230769 15.7568462,2.32553846 15.7668462,5.05553846 C15.7706923,6.06246154 15.7676154,7.06861538 15.7676154,8.07476923 M7.92146154,1.23246154 C6.85684615,1.23246154 5.79069231,1.214 4.72607692,1.23630769 C2.70223077,1.28015385 1.06992308,2.92707692 1.05607692,4.94630769 C1.04069231,7.04707692 1.04146154,9.14784615 1.05684615,11.2493846 C1.07069231,13.1655385 2.62684615,14.8424615 4.54761538,14.8978462 C6.77761538,14.9616923 9.01223077,14.9632308 11.2422308,14.8978462 C13.173,14.8409231 14.7106923,13.1886154 14.7306923,11.2532308 C14.7522308,9.16707692 14.7537692,7.08015385 14.7299231,4.994 C14.7060769,2.84707692 13.0837692,1.25246154 10.9414615,1.23323077 C9.93530769,1.224 8.92838462,1.23169231 7.92146154,1.23246154" id="Fill-1"></path>
            <path d="M11.9126923,8.11146154 C11.8980769,10.3353077 10.0742308,12.123 7.84192308,12.1006923 C5.64884615,12.0791538 3.85653846,10.2476154 3.87269231,8.04453846 C3.88884615,5.84915385 5.71192308,4.04607692 7.90884615,4.053 C10.1296154,4.05992308 11.9273077,5.88223077 11.9126923,8.11146154 M10.8726923,8.09530769 C10.8796154,6.443 9.56346154,5.10453846 7.92423077,5.09761538 C6.27192308,5.09069231 4.92730769,6.40376923 4.91346154,8.03838462 C4.89884615,9.70607692 6.22807692,11.0537692 7.89115385,11.0568462 C9.54423077,11.0599231 10.865,9.74838462 10.8726923,8.09530769" id="Fill-4"></path>
            <path d="M12.1276154,4.686 C11.5837692,4.67676923 11.1806923,4.24753846 11.1937692,3.69446154 C11.2068462,3.17676923 11.6353077,2.75215385 12.1453077,2.75215385 C12.6668462,2.75215385 13.1176154,3.20984615 13.1106923,3.73369231 C13.103,4.27061538 12.6645385,4.69523077 12.1276154,4.686" id="Fill-6"></path>
        </g>
    </g>
</svg>