<?xml version="1.0" encoding="UTF-8"?>
<svg width="434px" height="31px" viewBox="0 0 434 31" version="1.1" xmlns="http://www.w3.org/2000/svg" xmlns:xlink="http://www.w3.org/1999/xlink">
    <!-- Generator: Sketch 53.2 (72643) - https://sketchapp.com -->
    <title>Group 2</title>
    <desc>Created with Sketch.</desc>
    <g id="Page-1" stroke="none" stroke-width="1" fill="none" fill-rule="evenodd">
        <g id="Desktop-HD" transform="translate(-120.000000, -2552.000000)" fill="#9C9C9C">
            <g id="Group-2" transform="translate(120.000000, 2552.000000)">
                <path d="M348.120765,10.4085458 C349.763874,7.83050496 351.49226,5.3209481 353.980527,3.45894519 C355.146997,2.5861551 356.398744,1.88761866 357.881958,1.69510262 C359.626334,1.46758367 360.642046,2.70409971 360.010081,4.34314927 C359.39639,5.93045539 358.173576,6.99119592 356.784014,7.8754 C354.436607,9.36530671 351.818141,10.0813446 349.101453,10.4990968 C348.775572,10.5485574 348.444362,10.5774729 348.093355,10.6185633 C348.106299,10.508228 348.094878,10.4488752 348.120765,10.4085458 M362.627786,26.2268198 C361.879327,26.9314437 360.979348,27.1970093 359.984955,27.1970093 C358.463671,27.1939656 357.01472,26.7990414 355.610692,26.2709539 C352.876492,25.2421726 350.170464,24.1327324 347.430172,23.115365 C345.064492,22.2342047 342.654649,21.5257761 340.076537,21.7494904 C339.953951,21.7578606 339.82832,21.7494904 339.619695,21.7494904 C340.987176,20.7450589 342.105678,19.6112688 343.001088,18.2956157 C344.484302,16.1170647 345.892899,13.8852484 347.3152,11.6648461 C347.518495,11.3513417 347.740064,11.2044816 348.115435,11.1588257 C349.086986,11.0424029 350.060821,10.9122834 351.017906,10.7144408 C353.905909,10.1239569 356.671327,9.20322799 359.079646,7.43634169 C360.322256,6.52474402 361.3768,5.45182857 361.720955,3.86528338 C361.923488,2.92477026 361.654713,2.12959534 360.820976,1.66466531 C360.341292,1.39833878 359.761102,1.22408513 359.212892,1.18679942 C357.604807,1.07722507 356.10332,1.55433003 354.680256,2.24906181 C350.937958,4.08214927 348.05833,6.85270612 345.922593,10.4085458 C345.755085,10.6923738 345.586053,10.826298 345.229716,10.8635837 C342.963779,11.1154525 340.691751,11.3346012 338.444088,11.7089802 C336.059372,12.1069481 333.756127,12.8184204 331.707951,14.1660327 C328.431632,16.3202338 327.568962,19.2498257 328.104228,22.5172717 C328.609039,25.589919 330.726502,27.3065837 333.609176,28.1557848 C334.674379,28.4685283 335.768516,28.5408169 336.869506,28.3939569 C336.884734,28.3178636 336.898439,28.2410093 336.912906,28.1633942 C336.739306,28.131435 336.566467,28.0713213 336.392106,28.0751259 C335.025386,28.1055633 333.726432,27.8514117 332.553109,27.1262426 C328.734671,24.7665895 328.245849,19.3129831 330.811018,16.0150997 C332.019365,14.4620356 333.706635,13.6174 335.518014,12.9980006 C337.876842,12.1898898 340.331607,11.8451872 342.797793,11.5849481 C343.619348,11.4982017 344.446232,11.4418927 345.346972,11.3657994 C345.277685,11.5469015 345.257127,11.6306041 345.215249,11.7036536 C344.090656,13.6866449 342.997281,15.6917032 341.82472,17.645779 C340.282878,20.2154496 338.422769,22.4602017 335.394667,23.3832134 C335.030716,23.4935487 335.088583,23.6982397 335.329948,23.9341289 C336.424846,23.3801697 337.582941,23.1404758 338.795095,23.1404758 C340.709264,23.1442805 342.565565,23.5285516 344.344204,24.1753446 C347.542099,25.3410939 350.696593,26.6171784 353.87926,27.8316274 C355.695207,28.5248373 357.525621,29.1761959 359.490804,29.33447 C360.067948,29.3778431 360.530881,29.3009889 360.844579,28.7378985 C361.004474,28.448744 361.264874,28.2082892 361.498625,27.9647907 C362.082621,27.3560443 362.677278,26.7564292 363.265081,26.1552921 C363.243762,26.111919 363.222442,26.066263 363.1996,26.0244117 C363.005442,26.08833 362.762555,26.1012659 362.627786,26.2268198" id="Fill-4"></path>
                <path d="M399.981633,21.9978589 C400.080616,21.9407889 400.081377,21.7102262 400.16437,21.440856 C399.866661,21.564888 399.74103,21.6463079 399.607023,21.6638093 C399.386977,21.6934857 399.055005,21.7733837 398.962114,21.667614 C398.832675,21.5169493 398.855518,21.2163808 398.857802,20.9774478 C398.857802,20.8458064 398.940033,20.7095994 398.991809,20.577958 C399.447128,19.4350367 399.894072,18.2898327 400.363858,17.1537598 C400.783391,16.1325878 401.240233,15.1266344 401.658244,14.1039405 C402.017626,13.2288676 401.729054,12.8027452 400.775016,12.8316606 C400.374518,12.8445965 399.925289,12.8894915 399.589511,13.0812466 C398.8243,13.5225878 398.099444,14.042305 397.389816,14.5703924 C396.977135,14.8778093 396.626128,15.2658851 396.26903,15.5984128 C396.460142,15.0672816 396.691609,14.5095178 396.859118,13.9327306 C397.076879,13.1778851 396.814956,12.8552496 396.04137,12.8232904 C394.992156,12.7791563 394.123395,13.2539784 393.369605,13.8893574 C392.511504,14.6130047 391.738679,15.4454653 390.983367,16.1782437 C391.262802,15.1471796 391.772942,14.0544799 391.554419,12.8780776 C390.518149,13.1862554 389.545075,13.4639959 388.583423,13.780544 C388.401447,13.8414187 388.273532,14.0628501 388.118967,14.211993 C388.152468,14.2538443 388.183686,14.2956956 388.216426,14.3360251 C388.317693,14.3276548 388.420482,14.325372 388.520226,14.3101534 C389.293051,14.1929697 389.564872,14.4539697 389.423251,15.2095761 C389.366146,15.5040571 389.28696,15.800821 389.180363,16.0808443 C388.344342,18.2784187 387.497661,20.4729493 386.655549,22.6674799 C386.58017,22.8668443 386.50936,23.0692525 386.430935,23.2884012 C387.107061,23.0897977 387.711616,22.9300017 388.299419,22.7283545 C388.444086,22.6796548 388.61464,22.5168152 388.652711,22.3722379 C389.39584,19.5963545 390.750377,17.1606082 392.773426,15.1114157 C393.153367,14.7241009 393.620107,14.4029872 394.091416,14.1260076 C394.530746,13.8688122 394.837591,14.1077452 394.756121,14.6076781 C394.710437,14.8854187 394.612977,15.1593545 394.507904,15.4241592 C393.537875,17.8561009 392.56404,20.2849988 391.590205,22.7161796 C391.517111,22.8980426 391.454675,23.0837102 391.380819,23.2876402 C392.025728,23.0996898 392.584598,22.9193487 393.153367,22.7778152 C393.451837,22.7062875 393.550819,22.5556227 393.655132,22.268751 C394.176693,20.8123254 394.657139,19.3285061 395.335549,17.9428472 C396.044416,16.4902262 397.153781,15.3039318 398.497658,14.3809201 C398.759581,14.1998181 399.137237,14.1922087 399.461595,14.1031796 C399.458549,14.439512 399.55144,14.8116082 399.441798,15.1114157 C399.014651,16.2809697 398.503749,17.4208472 398.062135,18.5858356 C397.599202,19.8162641 397.130177,21.0497364 396.761658,22.3113633 C396.546942,23.0502292 396.996932,23.4535236 397.717219,23.1719784 C398.504511,22.8668443 399.241549,22.4133283 399.981633,21.9978589" id="Fill-6"></path>
                <path d="M422.242635,17.2070251 C422.222078,17.1423458 422.199997,17.0799493 422.1802,17.0167918 C423.204288,15.5421038 424.44233,14.3078706 426.153965,13.62227 C426.549134,13.463235 427.000646,13.337681 427.32272,13.7721738 C427.632611,14.1876431 427.497081,14.6221359 427.236681,15.0124945 C426.469186,16.163786 425.309569,16.7185061 424.01366,17.014509 C423.439562,17.1446286 422.835007,17.1461504 422.242635,17.2070251 M433.587548,23.460372 C432.496456,24.1695615 431.385569,24.141407 430.312751,23.4763516 C429.726471,23.1133866 429.182067,22.6651971 428.676495,22.1926577 C427.10572,20.7309055 425.946102,18.8597714 424.124825,17.6430397 C424.161372,17.6034711 424.168986,17.5836869 424.182692,17.5806431 C424.338779,17.5456402 424.493344,17.5106373 424.650955,17.4779172 C426.042039,17.1819143 427.292264,16.5899085 428.295793,15.5763458 C428.698576,15.1669638 429.056435,14.665509 429.279527,14.1404653 C429.588656,13.4152962 429.112018,12.7114332 428.32092,12.645993 C427.866362,12.6102292 427.3882,12.6322962 426.945825,12.7357831 C425.793821,13.0021096 424.823032,13.6412933 423.899449,14.3520047 C423.518748,14.6449638 423.151751,14.9577073 422.683488,15.335891 C424.006807,11.6369959 425.285204,8.06441574 426.58492,4.43172187 C425.289772,4.81218834 424.147667,5.13634577 423.017744,5.49702799 C422.863179,5.54724956 422.766481,5.77020292 422.54872,6.02435452 C422.860134,6.00152653 422.996425,5.99543907 423.135,5.98326414 C423.809604,5.91706297 424.077618,6.19099883 423.953509,6.84996676 C423.895642,7.16347114 423.804274,7.47393178 423.694632,7.77373936 C421.893151,12.747958 420.087864,17.7198939 418.284099,22.6933516 C418.215572,22.8828239 418.153137,23.074579 418.082327,23.2884012 C418.768351,23.0890367 419.388134,22.9216315 419.991927,22.7192233 C420.124411,22.6743283 420.2706,22.5198589 420.312478,22.3844128 C420.59572,21.4849901 420.84013,20.5733924 421.121849,19.6747306 C421.321337,19.0363079 421.561941,18.4123429 421.824625,17.6666286 C422.286035,17.9413254 422.719274,18.1072087 423.023835,18.4016898 C423.700723,19.0553312 424.337256,19.7576723 424.952471,20.4691446 C426.02072,21.7140309 427.031102,23.0106606 428.379548,23.9800892 C430.210723,25.2942204 432.099765,25.2280192 433.814446,23.7814857 C433.917997,23.6962612 433.939316,23.5121155 434.000228,23.3743866 C433.860892,23.4010192 433.697951,23.3911271 433.587548,23.460372" id="Fill-8"></path>
                <path d="M379.165623,21.6444055 C378.875528,21.866598 378.530612,22.0438953 378.183412,22.1686883 C377.545356,22.3984901 377.104504,22.1100965 377.106026,21.4283006 C377.106026,20.9199974 377.17303,20.391149 377.326072,19.9079566 C378.054735,17.6457029 379.255468,15.7426096 381.484096,14.6628458 C382.285854,14.27477 383.124921,14.0145309 384.059163,13.9148487 C383.147763,17.008802 381.717847,19.6842423 379.165623,21.6444055 M387.258581,13.2924055 C387.048433,13.0336883 386.526111,13.0283618 386.136272,12.9096563 C387.130665,10.0934434 388.120489,7.28560087 389.125542,4.44047259 C387.871511,4.8125688 386.744633,5.13139971 385.629177,5.48979913 C385.459384,5.54306443 385.342889,5.76601778 385.202791,5.91211691 C385.438826,6.0041898 385.594153,5.99353673 385.749479,5.97755714 C386.37383,5.92276997 386.598444,6.14876706 386.530679,6.784907 C386.513928,6.94470292 386.485756,7.10449883 386.433219,7.25592449 C385.80963,9.05476997 385.183756,10.8551373 384.536563,12.6456125 C384.486311,12.787907 384.284539,12.9431373 384.133019,12.9705309 C381.092735,13.514598 378.809286,15.1962598 377.066433,17.6662481 C376.096405,19.0427758 375.409619,20.5418137 375.451496,22.2782627 C375.481953,23.6106563 376.231935,24.124286 377.423532,23.5421723 C378.183412,23.1693152 378.885426,22.6564464 379.553939,22.1329245 C380.231588,21.5995105 380.864314,21.0090265 381.506177,20.4314784 C381.548816,20.2937496 381.590693,20.1575426 381.631809,20.0228574 C381.68663,20.0707962 381.739928,20.1225397 381.793988,20.1727612 C381.697289,20.2572248 381.600591,20.345493 381.506177,20.4314784 C381.321918,21.0173968 381.128521,21.5995105 381.009742,22.1983647 C380.84604,23.0209332 381.36684,23.4668399 382.145756,23.1502918 C382.899546,22.8451577 383.608412,22.4213181 384.312711,22.0096534 C384.439104,21.9366038 384.451286,21.6717991 384.516005,21.4967845 C384.254082,21.4876534 384.130735,21.5652685 383.996728,21.5903793 C383.765261,21.6337525 383.399788,21.7440878 383.31984,21.6444055 C383.187356,21.4747175 383.228472,21.1634959 383.206391,20.9116271 C383.201061,20.8461869 383.235325,20.7723764 383.257405,20.7061752 C384.047742,18.5481694 384.839602,16.3924464 385.621563,14.2329187 C385.715216,13.9749624 385.837802,13.8912598 386.09744,13.9955076 C386.551998,14.1750878 387.010363,14.3447758 387.515174,14.5380528 C387.439033,14.0951898 387.49157,13.5785163 387.258581,13.2924055" id="Fill-10"></path>
                <path d="M372.892191,21.6601569 C372.900566,21.3557837 372.833563,21.0262997 372.928738,20.7538857 C373.269847,19.7798915 373.653594,18.8195942 374.046479,17.8653843 C374.588598,16.5489703 375.169549,15.2477749 375.702531,13.9267953 C375.960647,13.2830461 375.681973,12.8340956 375.00204,12.8424659 C374.480479,12.8455096 373.891914,12.8843172 373.449538,13.1232501 C372.583822,13.5942676 371.762268,14.1733376 370.988682,14.7889324 C370.438187,15.2295125 369.997335,15.8108653 369.451408,16.3876525 C369.795563,15.1830956 370.307987,14.0865913 370.090987,12.8820344 C369.036444,13.1962997 368.031391,13.4831714 367.037759,13.8065679 C366.882433,13.8583114 366.785735,14.0827866 366.589293,14.3118274 C366.840556,14.3118274 366.944107,14.3240023 367.043851,14.3103055 C367.836472,14.1946437 368.120475,14.4830373 367.962865,15.2508187 C367.920987,15.4600752 367.860836,15.667049 367.788503,15.8671743 C367.344605,17.0899936 366.909082,18.3143347 366.446149,19.5287837 C365.970272,20.7721481 365.466222,22.0040985 364.956082,23.292358 C365.628401,23.0945155 366.229149,22.9339586 366.819236,22.7345942 C366.966187,22.6820898 367.129128,22.532186 367.186233,22.3868478 C367.611096,21.2941481 367.920987,20.1474222 368.439503,19.1034222 C369.388212,17.2033726 370.669654,15.5384513 372.472658,14.3483522 C372.736103,14.1748595 373.117566,14.1847516 373.44497,14.1071364 C373.442686,14.4457516 373.530247,14.8186087 373.421366,15.1153726 C372.987366,16.3031889 372.471896,17.459807 372.022668,18.6415359 C371.568872,19.8377224 371.105938,21.0354309 370.741987,22.259772 C370.509759,23.0496204 370.977261,23.4681335 371.75237,23.1629994 C372.523672,22.8593872 373.238629,22.4104367 373.961963,21.9972501 C374.063991,21.9386583 374.067798,21.7141831 374.152314,21.4630752 C373.930745,21.5376466 373.866026,21.5718886 373.799022,21.5772152 C373.495984,21.6091743 373.194468,21.6320023 372.892191,21.6601569" id="Fill-12"></path>
                <path d="M362.186781,16.0286443 C361.368273,18.0367464 360.197995,19.8165685 358.541181,21.2334257 C358.066066,21.6420466 357.476739,21.9410933 356.900357,22.2028542 C356.473971,22.3953703 356.126771,22.160242 356.014083,21.7036822 C355.954694,21.4495306 355.909009,21.1542886 355.981343,20.9153557 C356.247834,20.0144111 356.496813,19.0990087 356.88056,18.244481 C357.727241,16.3581283 359.156395,15.0310612 361.076655,14.2571924 C362.653522,13.6240962 364.222013,13.5480029 365.789743,14.477102 C365.731115,14.0951137 365.665634,13.7838921 365.638224,13.467344 C365.610813,13.1424257 365.448634,12.9818688 365.132652,12.9757813 C364.544848,12.9605627 363.950953,12.8882741 363.372287,12.9483878 C359.450297,13.3745102 355.542013,16.713484 354.545336,20.537172 C354.357269,21.2585364 354.320722,22.057516 354.403715,22.8009475 C354.497367,23.646344 355.069943,23.941586 355.883122,23.6889563 C356.303416,23.5595977 356.710767,23.3556676 357.089185,23.1289096 C358.454381,22.3093848 359.506641,21.1466793 360.550525,19.9078805 C360.341139,20.7616472 360.094445,21.559105 359.964245,22.3725423 C359.848511,23.1045598 360.268806,23.4462187 360.96549,23.1669563 C361.739076,22.8595394 362.464694,22.4341778 363.194118,22.0270787 C363.304522,21.9623994 363.311374,21.7181399 363.367718,21.558344 C363.136252,21.5385598 363.044883,21.6017172 362.946662,21.6199796 C362.697683,21.6633528 362.309367,21.7987988 362.222567,21.6937901 C362.076378,21.5172536 362.09389,21.1847259 362.087799,20.9161166 C362.083231,20.76393 362.150995,20.6033732 362.211908,20.4557522 C362.648953,19.3447901 363.082192,18.233828 363.53675,17.1281924 C363.814662,16.451723 364.131406,15.7881895 364.445104,15.0858484 C363.903746,15.2144461 363.443859,15.3894606 362.974834,15.4145714 C362.517992,15.4373994 362.347438,15.6390466 362.186781,16.0286443" id="Fill-14"></path>
                <path d="M408.698028,21.6938662 C408.691937,21.3537292 408.6828,21.0120703 408.686607,20.6719332 C408.687369,20.5867087 408.733814,20.4999624 408.766555,20.4170207 C409.222635,19.2763822 409.673386,18.1334609 410.140888,16.998149 C410.402811,16.3680965 410.696713,15.7486971 410.985285,15.0988603 C410.406618,15.2206096 409.894193,15.3651869 409.371109,15.4245397 C409.056649,15.4625863 408.927211,15.5881402 408.797772,15.8613152 C408.383569,16.7295397 407.983071,17.6091781 407.477499,18.4218545 C406.614828,19.8082743 405.577035,21.0562044 404.157018,21.9191023 C403.753474,22.1641227 403.286734,22.4624085 402.817709,22.1131402 C402.370765,21.7798516 402.481169,21.2517641 402.523046,20.7716155 C402.526853,20.7381344 402.53599,20.7023706 402.548934,20.6704114 C402.992071,19.5670586 403.295871,18.3792423 403.912607,17.383942 C405.298362,15.1437554 407.338162,13.8189711 410.04419,13.8220149 C410.803309,13.8227758 411.561667,14.138563 412.310888,14.3052073 C412.276625,14.1035601 412.206576,13.8258195 412.192871,13.5465571 C412.172313,13.1501111 411.991099,12.9568341 411.598214,12.9674872 C410.800264,12.9880324 409.982516,12.9096563 409.207407,13.0565163 C406.501379,13.5693851 404.414372,15.0950557 402.775071,17.2484959 C401.643625,18.7330761 400.816741,20.3584289 400.857095,22.2957641 C400.886028,23.6121781 401.617737,24.1280907 402.792583,23.5505426 C403.627842,23.1403997 404.409042,22.5780703 405.125523,21.9776942 C405.848095,21.3712306 406.458741,20.6346475 407.096035,19.9810061 C406.895025,20.7419391 406.643,21.5196125 406.494527,22.3155484 C406.35519,23.0589799 406.798327,23.4462948 407.503386,23.1677933 C408.276972,22.8618983 409.00259,22.4365367 409.732014,22.0301985 C409.843179,21.9670411 409.853078,21.7243035 409.935309,21.4929799 C409.741151,21.5264609 409.689376,21.5386359 409.638362,21.5462452 C409.324664,21.5964668 409.011727,21.6459274 408.698028,21.6938662" id="Fill-16"></path>
                <path d="M369.174714,2.59673207 C368.30443,4.92823061 367.472216,7.15167668 366.630104,9.40632099 C367.051921,9.29370292 367.448613,9.20695656 367.82703,9.07074956 C367.942002,9.03042012 368.048599,8.86681953 368.090476,8.7389828 C368.714065,6.82295364 369.321665,4.90692449 369.944493,2.99393907 C369.986371,2.86610233 370.122662,2.69793615 370.237634,2.67967376 C371.184058,2.51911691 372.132767,2.39051924 373.154571,2.24137638 C372.331493,4.58885452 371.493188,6.97057464 370.650314,9.37207901 C371.568567,9.28457172 372.128199,8.93378163 372.349767,7.90119563 C372.661942,6.44476997 373.612174,5.32391574 374.882956,4.52417522 C375.038283,4.42753673 375.273556,4.45645219 375.47076,4.42525394 C375.47609,4.61168251 375.537002,4.81789534 375.478374,4.98073499 C375.231679,5.68764169 374.942346,6.37780787 374.685753,7.07938805 C374.493879,7.59682245 374.295153,8.11577872 374.154293,8.64690991 C373.983739,9.29522478 374.26622,9.55546385 374.8959,9.31576997 C375.358072,9.13847259 375.783697,8.86681953 376.216935,8.61951633 C376.276325,8.58831808 376.276325,8.45211108 376.303735,8.36384286 C376.226072,8.35166793 376.149932,8.32655714 376.072269,8.33188367 C375.889532,8.34481953 375.709841,8.36993032 375.526342,8.39199738 C375.537764,8.16980496 375.492841,7.92782828 375.567458,7.73150758 C375.988514,6.61597988 376.444595,5.51034431 376.878595,4.39938222 C377.094834,3.84998863 376.896869,3.50300321 376.325816,3.59431516 C375.713648,3.69323644 375.079399,3.9002102 374.547178,4.21523644 C374.027139,4.52189242 373.623595,5.02563003 373.098988,5.50730058 C373.705065,3.83172624 374.285255,2.21930933 374.867728,0.608414286 C373.568774,1.45609359 372.179974,1.83656006 370.678486,1.74220437 C369.205171,1.64708776 367.734139,1.48576997 366.263107,1.37619563 C366.110065,1.36478163 365.901441,1.46598571 365.797128,1.58316939 C365.376072,2.06331808 364.979381,2.56553382 364.584974,3.0685105 C364.511118,3.16210525 364.489037,3.29755131 364.469241,3.35005569 C365.220746,3.04796531 365.92809,2.62336472 366.683402,2.50161545 C367.448613,2.37682245 368.260269,2.54727143 369.174714,2.59673207" id="Fill-18"></path>
                <path d="M417.338816,15.191542 C418.266206,14.4161513 419.268213,13.8926294 420.542041,14.5280085 C420.739244,13.9748102 420.925027,13.4482446 421.136697,12.8585216 C418.969742,12.6454603 417.641093,13.9063262 416.364981,15.2227402 C416.460918,14.4450668 416.559139,13.670437 416.663451,12.8493904 C415.509164,13.194093 414.536851,13.4672679 413.575199,13.7853379 C413.399314,13.8439297 413.275967,14.0752534 413.041455,14.3141863 C414.520862,14.2685303 414.679234,14.4960493 414.274167,15.7957227 C414.23762,15.9144283 414.201834,16.0338948 414.159195,16.1495566 C413.649816,17.5184749 413.14729,18.8881542 412.627251,20.2502242 C412.242742,21.2576994 411.830062,22.2552825 411.41662,23.2886294 C412.10569,23.089265 412.733086,22.918816 413.354392,22.7171688 C413.470125,22.6798831 413.592711,22.5383496 413.639156,22.4135566 C414.214778,20.9046265 414.739385,19.3743904 415.362213,17.8844837 C415.795451,16.8389618 416.460918,15.9235595 417.338816,15.191542" id="Fill-20"></path>
                <path d="M407.150095,27.1434397 C407.200348,27.944702 407.171414,28.751291 407.171414,29.6773464 C406.340723,28.728463 405.559523,27.899807 404.855986,27.0102764 C404.484421,26.5423026 404.077071,26.5750227 403.571499,26.6724222 C404.2126,26.8253697 404.227828,27.2842122 404.208793,27.7887108 C404.183667,28.3944134 404.203464,29.0031598 404.201941,29.6088624 C404.201179,30.0129178 404.240011,30.442084 403.723779,30.6247079 L405.083646,30.6247079 C404.889488,30.4702385 404.584927,30.3416408 404.578074,30.2001073 C404.533151,29.3326437 404.553709,28.4590927 404.553709,27.5102093 C405.522214,28.6226933 406.430569,29.670498 407.338162,30.7167808 C407.38613,30.6871044 407.433337,30.6597108 407.482828,30.6307953 C407.482828,29.8006175 407.448565,28.9658741 407.494249,28.1372181 C407.52166,27.6167399 407.255169,26.9630985 407.991446,26.6419848 L406.674218,26.6419848 C406.849341,26.8177603 407.140958,26.9714688 407.150095,27.1434397" id="Fill-22"></path>
                <path d="M413.327819,29.5893064 C412.990517,30.2482743 412.37378,30.4423122 411.667198,30.4354638 C411.291064,30.433181 411.113657,30.2794726 411.126601,29.8913968 C411.141829,29.446251 411.129647,29.0026271 411.129647,28.5574813 C411.129647,28.095595 411.106805,27.6299041 411.144875,27.1733443 C411.157819,27.0378983 411.344362,26.8202714 411.461619,26.8126621 C412.147643,26.7692889 412.857271,26.7890732 413.270713,27.4518458 C413.696338,28.1336417 413.691769,28.8854434 413.327819,29.5893064 M412.799405,26.7274376 C411.915415,26.6102539 411.015436,26.6056883 410.219769,26.5592714 C410.356822,26.9351723 410.543366,27.2372627 410.563924,27.5507671 C410.609608,28.2789799 410.581436,29.0125192 410.570015,29.7422539 C410.567731,30.1173939 410.584482,30.5214493 410.008861,30.615044 C410.905033,30.6424376 411.747906,30.6188487 412.578598,30.5009041 C412.911331,30.4544872 413.250155,30.2459915 413.520454,30.0291257 C414.169169,29.5086475 414.322212,28.7827175 414.151657,28.0020003 C413.997854,27.2836796 413.50751,26.8202714 412.799405,26.7274376" id="Fill-24"></path>
                <path d="M426.230639,27.2017271 C426.282414,27.9923364 426.252719,28.7859895 426.252719,29.6831294 C425.438779,28.7517475 424.653011,27.9093948 423.934246,27.0137767 C423.565726,26.5534122 423.168274,26.5526513 422.66727,26.6896192 C423.245175,26.8227825 423.315225,27.2215114 423.294667,27.7069866 C423.268018,28.3667155 423.2802,29.0256834 423.283246,29.6854122 C423.286291,30.0879458 423.232232,30.4524327 422.789856,30.6152723 L424.11013,30.6152723 C423.937291,30.4547155 423.650242,30.3162257 423.643389,30.1632781 C423.599228,29.3079895 423.62207,28.4496571 423.62207,27.4962082 C424.59286,28.6193452 425.497407,29.6686717 426.404239,30.7179983 C426.457537,30.6921265 426.508551,30.6662548 426.561088,30.6403831 C426.561088,30.470695 426.559565,30.2994851 426.561088,30.131319 C426.567179,29.2927708 426.581646,28.4587883 426.577077,27.6202402 C426.576316,27.2002052 426.622,26.8204997 427.085695,26.6310274 L425.763137,26.6310274 C425.942067,26.8387621 426.219218,27.009972 426.230639,27.2017271" id="Fill-26"></path>
                <path d="M400.882145,29.4627633 C400.730626,30.0463988 400.374289,30.4344746 399.754507,30.5151335 C399.125587,30.5965534 398.640573,30.340119 398.3185,29.8036612 C397.923331,29.1439324 397.861658,28.4309382 398.103022,27.7034863 C398.275861,27.1761598 398.627629,26.8185213 399.204773,26.753842 C399.826079,26.685358 400.353731,26.890049 400.635451,27.4584659 C400.834938,27.8617603 400.9225,28.3206029 401.019959,28.6363901 C400.959808,29.0100082 400.941535,29.2405708 400.882145,29.4627633 M399.552735,26.5430636 C398.249973,26.5392589 397.337812,27.4257458 397.340096,28.6904163 C397.34238,29.8713843 398.207335,30.7350431 399.404261,30.7456962 C400.693317,30.7578711 401.613093,29.8538828 401.612331,28.5816029 C401.607763,27.3770461 400.770219,26.5445854 399.552735,26.5430636" id="Fill-28"></path>
                <path d="M419.032254,30.4704668 C418.454348,30.6386329 417.932787,30.4963385 417.521629,30.0451052 C416.988647,29.4599478 416.845503,28.2698487 417.208692,27.5180469 C417.469092,26.9831111 417.89091,26.712219 418.495464,26.7434172 C419.136566,26.7761373 419.573612,27.1094259 419.792134,27.6930615 C419.920812,28.0385251 419.972587,28.4121431 420.06091,28.7735863 C420.011419,29.6296359 419.645184,30.2908866 419.032254,30.4704668 M418.539626,26.5432918 C417.271889,26.5448137 416.378001,27.4297787 416.378001,28.6830353 C416.378762,29.8997671 417.248285,30.7489682 418.484805,30.7451636 C419.752541,30.739837 420.679931,29.797802 420.656327,28.5354143 C420.63044,27.3498808 419.771576,26.5394872 418.539626,26.5432918" id="Fill-30"></path>
                <path d="M395.180984,30.1221117 C394.983781,30.4097443 394.251311,30.6037822 393.859949,30.3770242 C393.684065,30.2758201 393.582037,29.9273128 393.56757,29.6815315 C393.5295,29.0073449 393.564525,28.3301146 393.550819,27.6551671 C393.543205,27.224479 393.52417,26.8059659 394.054107,26.6256248 L392.61277,26.6256248 C392.752868,26.8942341 392.984335,27.1438201 392.998802,27.4017764 C393.042963,28.1992341 393.034588,29.0020184 392.978244,29.7987152 C392.958447,30.0871087 392.749061,30.3663711 392.625714,30.651721 C393.230268,30.651721 393.941419,30.6501991 394.650286,30.6524819 C395.427679,30.6562866 395.512956,30.5634528 395.473363,29.6183741 C395.348493,29.834479 395.273875,29.9859047 395.180984,30.1221117" id="Fill-32"></path>
                <path d="M380.011771,4.24628251 C380.129027,4.12072857 380.428258,4.16029708 380.642213,4.12453324 C380.613279,4.33455073 380.639167,4.57652741 380.540946,4.74925918 C380.135879,5.45768776 379.472697,5.8351105 378.747079,6.11741662 C378.695304,6.06947784 378.642006,6.02153907 378.59023,5.97436122 C379.058493,5.39453032 379.510006,4.79643703 380.011771,4.24628251 M378.271964,9.33540204 C379.673707,9.64510175 381.906904,8.36749534 382.346234,6.99781603 C382.4909,6.54810466 382.330244,6.24981895 381.871879,6.09230583 C381.677721,7.54873149 380.795255,8.39412799 379.498585,8.84688309 C378.868142,9.06679271 378.415107,8.77687726 378.231609,8.14530292 C378.028314,7.452093 378.30242,6.74442536 378.827788,6.54810466 C379.832079,6.17068192 380.840178,5.77575773 381.506406,4.87861778 C381.673914,4.6549035 381.809444,4.22193265 381.701325,4.02561195 C381.575693,3.79352741 381.177479,3.68927959 380.881293,3.57666152 C380.745764,3.52720087 380.563788,3.57209592 380.406939,3.6017723 C378.594037,3.9411484 376.967679,5.90739913 376.978339,7.74200845 C376.982146,8.57751283 377.450409,9.1543 378.271964,9.33540204" id="Fill-34"></path>
                <path d="M69.36622,22.7756085 C69.0403393,22.7756085 68.9809498,22.3875327 68.9809498,21.2910283 C68.9809498,20.2485501 69.0677498,19.9472207 69.36622,19.9472207 C69.6959077,19.9472207 69.7499674,20.3649729 69.7499674,21.3648388 C69.7499674,22.3601391 69.6959077,22.7756085 69.36622,22.7756085 M69.36622,19.7143752 C68.7502446,19.7143752 68.2865498,20.4243257 68.2865498,21.3648388 C68.2865498,22.3175268 68.7411077,23.0084539 69.36622,23.0084539 C69.981434,23.0084539 70.4458902,22.3023082 70.4458902,21.3648388 C70.4458902,20.4243257 69.981434,19.7143752 69.36622,19.7143752" id="Fill-36"></path>
                <path d="M56.3240632,19.7927513 L56.3233018,19.7927513 L55.0677474,19.7927513 L55.0220632,20.931107 L55.2146982,20.931107 C55.2718035,20.3254044 55.5756035,20.0058125 55.8245825,20.0058125 C55.9715333,20.0058125 56.0073193,20.1131041 56.0073193,20.3931274 L56.0073193,22.4316668 C56.0073193,22.6196172 55.9646807,22.6736434 55.8146842,22.6736434 L55.5367719,22.6736434 L55.5367719,22.9042061 L56.3233018,22.9042061 L56.3240632,22.9042061 L57.1113544,22.9042061 L57.1113544,22.6736434 L56.8326807,22.6736434 C56.6834456,22.6736434 56.6400456,22.6196172 56.6400456,22.4316668 L56.6400456,20.3931274 C56.6400456,20.1131041 56.6758316,20.0058125 56.8220211,20.0058125 C57.0717614,20.0058125 57.3755614,20.3254044 57.4326667,20.931107 L57.6245404,20.931107 L57.5788561,19.7927513 L56.3240632,19.7927513 Z" id="Fill-38"></path>
                <path d="M52.5938712,20.9414557 L52.5101168,20.9056918 C52.1202782,20.7398085 51.9223133,20.6561058 51.9223133,20.3684732 C51.9223133,20.1379105 52.1004818,19.9796364 52.3532677,19.9796364 C52.7073204,19.9796364 53.0286326,20.3228172 53.1961414,20.9064528 L53.3933449,20.9064528 L53.3933449,19.7764673 L53.1999484,19.7764673 C53.1748221,19.8297327 53.1192396,19.9925723 53.0743168,19.9925723 C53.0248256,19.9925723 52.7286396,19.7216802 52.2923554,19.7216802 C51.7860221,19.7216802 51.3908537,20.1181262 51.3908537,20.6256685 C51.3908537,21.1172312 51.6862782,21.3340971 52.2299204,21.5654207 C52.7377765,21.7800038 53.0248256,21.9184936 53.0248256,22.2723274 C53.0248256,22.526479 52.8451344,22.7037764 52.5900642,22.7037764 C52.1514958,22.7037764 51.7647028,22.2913507 51.6352642,21.6384703 L51.4190256,21.6384703 L51.3992291,22.9054236 L51.6086151,22.9054236 C51.6474467,22.8224819 51.6976993,22.6558376 51.7616572,22.6558376 C51.8370361,22.6558376 52.102766,22.9754294 52.5938712,22.9754294 C53.1573098,22.9754294 53.5524782,22.5614819 53.5524782,21.9664324 C53.5524782,21.380514 53.187766,21.1940854 52.5938712,20.9414557" id="Fill-40"></path>
                <path d="M48.5551586,22.6634469 C48.2178568,22.6634469 48.2178568,22.6071379 48.2178568,22.3955985 L48.2178568,21.4063857 L48.299327,21.4063857 C48.7417025,21.4063857 48.9328147,21.5494411 48.9381446,21.982412 L49.1894077,21.982412 L49.1894077,20.5777297 L48.9373832,20.5777297 C48.9328147,21.0030913 48.7401796,21.152995 48.299327,21.152995 L48.2178568,21.152995 L48.2178568,20.2550942 C48.2178568,20.0450767 48.2178568,20.0329017 48.5277481,20.0329017 C49.1909305,20.0329017 49.4696042,20.2170475 49.546506,20.7854644 L49.7962463,20.7854644 L49.723913,19.7939688 L47.1945305,19.7939688 L47.1945305,20.00703 L47.4244744,20.00703 C47.5386849,20.00703 47.5729481,20.0351845 47.5729481,20.2079163 L47.5729481,22.4770184 C47.5729481,22.6505111 47.5402077,22.6756219 47.4244744,22.6756219 L47.1945305,22.6756219 L47.1945305,22.9039017 L49.7338112,22.9039017 L49.8190884,21.8469659 L49.5746779,21.8469659 C49.4840709,22.3864673 49.1178358,22.6634469 48.5551586,22.6634469" id="Fill-42"></path>
                <path d="M63.3988723,22.3997837 L63.3988723,19.7753259 L63.1856793,19.7753259 C63.0638547,20.2029703 62.690767,20.410705 62.2978828,20.444186 L62.2978828,20.6861627 L62.4440723,20.6861627 C62.7143705,20.6861627 62.7631004,20.7363843 62.7631004,21.023256 L62.7631004,22.3997837 C62.7631004,22.6326292 62.726553,22.6676321 62.4829039,22.6676321 L62.2857004,22.6676321 L62.2857004,22.9035213 L63.8519074,22.9035213 L63.8519074,22.6676321 L63.6783074,22.6676321 C63.4354196,22.6676321 63.3988723,22.6326292 63.3988723,22.3997837" id="Fill-44"></path>
                <path d="M65.1175123,20.850372 L65.3763895,20.850372 C65.4289263,20.5011038 65.5385684,20.3900076 65.7449088,20.3900076 L66.5687474,20.3900076 C66.5291544,20.7309055 66.3593614,20.9629901 66.0791649,21.2384478 C65.6550632,21.6516344 65.4411088,22.0587335 65.4411088,22.4468093 C65.4411088,22.745856 65.6040491,22.9467423 65.8476982,22.9467423 C66.0875404,22.9467423 66.236014,22.7869464 66.236014,22.5289901 C66.236014,22.4513749 66.1933754,22.2786431 66.1933754,22.1721125 C66.1933754,21.8471942 66.3167228,21.6318501 66.5131649,21.2879085 C66.7248351,20.9173341 66.9288912,20.5011038 66.9113789,19.7751738 L65.2043123,19.7751738 C65.1951754,20.1328122 65.1175123,20.850372 65.1175123,20.850372" id="Fill-46"></path>
                <path d="M71.7840568,20.850372 L72.042934,20.850372 C72.0947095,20.5011038 72.2035902,20.3900076 72.4106919,20.3900076 L73.2345305,20.3900076 C73.1956989,20.7309055 73.0251446,20.9629901 72.7449481,21.2384478 C72.3216077,21.6516344 72.1068919,22.0587335 72.1068919,22.4468093 C72.1068919,22.745856 72.2705937,22.9467423 72.51272,22.9467423 C72.7525621,22.9467423 72.9017972,22.7869464 72.9017972,22.5289901 C72.9017972,22.4513749 72.8583972,22.2786431 72.8583972,22.1721125 C72.8583972,21.8471942 72.9817446,21.6318501 73.1797095,21.2879085 C73.3913796,20.9173341 73.593913,20.5011038 73.5771621,19.7751738 L71.869334,19.7751738 C71.86172,20.1328122 71.7840568,20.850372 71.7840568,20.850372" id="Fill-48"></path>
                <path d="M48.5614021,8.5449449 L48.5614021,8.91628017 C49.7012232,8.91628017 49.7248267,9.49154548 49.7248267,10.7744784 L49.7248267,13.639391 C49.7248267,15.2403939 49.4834618,15.9549099 48.0588758,15.9549099 C46.6434267,15.9549099 46.4035846,15.2403939 46.4035846,13.639391 L46.4035846,9.94582245 C46.4035846,9.14836472 46.4439389,8.91932391 47.315746,8.91932391 L47.5251319,8.91932391 L47.5251319,8.5449449 L43.8742021,8.5449449 L43.8742021,8.91932391 L44.0310512,8.91932391 C44.8944828,8.91932391 44.9317916,9.14836472 44.9317916,9.94582245 L44.9317916,13.9840936 C44.9317916,16.0797029 45.6764442,16.8581373 47.6774126,16.8581373 C49.4636653,16.8581373 50.2958793,16.0142627 50.2958793,14.2032423 L50.2958793,10.7508895 C50.2958793,9.37664461 50.3826793,8.91628017 51.3222512,8.91628017 L51.3222512,8.5449449 L51.2902723,8.5449449 L48.5614021,8.5449449 Z" id="Fill-50"></path>
                <path d="M11.6202358,16.3800431 C10.4233095,16.3800431 9.91316912,15.247014 9.91316912,12.5905971 C9.91316912,9.92657085 10.4233095,8.78973703 11.6202358,8.78973703 C12.8255375,8.78973703 13.3387235,9.92657085 13.3387235,12.5905971 C13.3387235,15.247014 12.8255375,16.3800431 11.6202358,16.3800431 M11.6202358,8.34535219 C9.74261474,8.34535219 8.15204281,10.0277749 8.15204281,12.6020111 C8.15204281,15.0027545 9.6268814,16.85867 11.6202358,16.85867 C13.6036919,16.85867 15.0998498,15.0293872 15.0998498,12.6020111 C15.0998498,10.1753959 13.6036919,8.34535219 11.6202358,8.34535219" id="Fill-52"></path>
                <path d="M20.3284077,12.0755216 L19.3012744,12.0755216 L19.3012744,9.57509592 C19.3012744,9.07820671 19.3302077,8.98461195 20.223334,8.98461195 C21.4766042,8.98461195 21.8786253,9.34301137 21.8786253,10.4608219 C21.8786253,11.5626528 21.3867586,12.0755216 20.3284077,12.0755216 L20.3284077,12.0755216 Z M23.995327,15.10023 C23.995327,15.7310434 23.8955832,15.9775857 23.6389902,15.9775857 C23.3039726,15.9775857 23.2849375,15.6610376 23.2742779,15.0035915 C23.2689481,14.7410697 23.2651411,14.4435449 23.2308779,14.1178656 C23.1166674,12.9916848 22.6286077,12.4963175 21.4019867,12.3076061 C22.9788533,12.1295478 23.6298533,11.5664574 23.6298533,10.402991 C23.6298533,9.11625335 22.7017025,8.54174898 20.6215481,8.54174898 L16.74372,8.54174898 L16.74372,8.91536706 L17.268327,8.91536706 C17.6574042,8.91536706 17.7708533,9.05918338 17.7708533,9.55302886 L17.7708533,15.6298394 C17.7708533,16.1229239 17.6574042,16.2659793 17.268327,16.2659793 L16.74372,16.2659793 L16.74372,16.6738394 L20.3284077,16.6738394 L20.3284077,16.2659793 L19.8152218,16.2659793 C19.4215761,16.2659793 19.3012744,16.1168364 19.3012744,15.6298394 L19.3012744,12.5632796 C19.3484814,12.5625187 19.6888288,12.5632796 19.6888288,12.5632796 C21.1857481,12.5632796 21.596906,12.8859152 21.596906,14.0980813 L21.5854849,14.8590143 C21.5854849,16.2043437 22.0651691,16.8579851 23.0534709,16.8579851 C24.0242604,16.8579851 24.4567375,16.3550085 24.4567375,15.2273058 L24.4567375,14.976198 L23.995327,14.976198 L23.995327,15.10023 Z" id="Fill-54"></path>
                <path d="M26.1629667,8.54167289 L26.0449491,11.5176816 L26.503314,11.5176816 C26.8116825,9.86645714 27.5791772,8.97464373 28.1433772,8.97464373 C28.5271246,8.97464373 28.6771211,9.25847172 28.6771211,9.98896735 L28.6771211,15.6183493 C28.6771211,16.1114338 28.5636719,16.2552501 28.1738333,16.2552501 L27.3880649,16.2552501 L27.3880649,16.6737633 L31.5064965,16.6737633 L31.5064965,16.2552501 L30.7207281,16.2552501 C30.3301281,16.2552501 30.2182018,16.1114338 30.2182018,15.6183493 L30.2182018,9.98896735 C30.2182018,9.25847172 30.3681982,8.97464373 30.7519456,8.97464373 C31.3153842,8.97464373 32.0988684,9.8885242 32.3920088,11.5176816 L32.8496123,11.5176816 L32.7315947,8.54167289 L26.1629667,8.54167289 Z" id="Fill-56"></path>
                <path d="M39.4353719,8.91300816 C40.5904211,8.89474577 40.6086947,9.58415102 40.6086947,10.8412122 L40.6086947,14.4761889 C40.4944842,14.2813901 37.1267965,8.54167289 37.1267965,8.54167289 L34.684214,8.54167289 L34.684214,8.9160519 L35.1974,8.9160519 C35.588,8.9160519 35.7006877,9.05834636 35.7006877,9.55219184 L35.7006877,14.4328157 C35.7006877,15.734772 35.6184561,16.2651423 34.7892877,16.2651423 L34.6743158,16.2651423 L34.6743158,16.6745242 L37.4245053,16.6745242 L37.4245053,16.2659032 C36.3204702,16.2659032 36.2610807,15.7652093 36.2610807,14.3521569 L36.2610807,10.0703872 C36.3752912,10.265186 40.1716491,16.6745242 40.1716491,16.6745242 L41.1591895,16.6745242 L41.1591895,10.7483784 C41.1591895,9.45479242 41.2079193,8.91300816 42.1855614,8.91300816 L42.1855614,8.54167289 L39.4353719,8.54167289 L39.4353719,8.91300816 Z" id="Fill-58"></path>
                <path d="M0,8.54235773 L0,8.91673673 L0.523845614,8.91673673 C0.913684211,8.91673673 1.02713333,9.05979213 1.02713333,9.55363761 L1.02713333,15.631209 C1.02713333,16.1235327 0.913684211,16.2658271 0.523845614,16.2658271 L0,16.2658271 L0,16.6744481 L3.58468772,16.6744481 L3.58468772,16.2658271 L3.07150175,16.2658271 C2.68090175,16.2658271 2.56897544,16.1235327 2.56897544,15.631209 L2.56897544,12.4048534 L2.78825965,12.4048534 C4.03087018,12.4048534 4.55547719,12.8446726 4.60268421,13.9472644 L5.08312982,13.9472644 L5.08312982,10.3838155 L4.60268421,10.3838155 C4.54557895,11.5191274 4.04076842,11.9262265 2.78825965,11.9262265 L2.56897544,11.9262265 L2.56897544,9.67919155 C2.56897544,9.11838397 2.56897544,8.98598163 3.49027368,8.98598163 C5.23464912,8.98598163 6.01661053,9.55515948 6.22980351,11.0001711 L6.71101053,11.0001711 L6.52675088,8.54235773 L0,8.54235773 Z" id="Fill-60"></path>
                <path d="M90.1880933,14.0674918 C90.2147425,13.9883548 91.3332442,10.6120953 91.3918723,10.434798 C91.4474547,10.6136172 92.4921004,13.9883548 92.5157039,14.0674918 L90.1880933,14.0674918 Z M94.3583004,14.871798 C94.3575389,14.871798 92.234746,8.49594082 92.234746,8.49594082 L92.2134267,8.49594082 L91.4840021,8.49594082 L89.5127284,14.3771915 C89.0992863,15.6182732 88.8465004,16.2650662 88.0660618,16.2650662 L87.992967,16.2650662 L87.992967,16.6736872 L90.5109284,16.6736872 L90.5109284,16.2650662 L90.3540793,16.2650662 C89.804346,16.2650662 89.6939425,16.0892907 89.6939425,15.802419 C89.6939425,15.5223956 89.945967,14.7880953 89.9901284,14.6602586 L92.6999635,14.6602586 C92.7136688,14.700588 93.059346,15.7818738 93.059346,15.8944918 C93.059346,16.165384 92.8918372,16.2650662 92.4410863,16.2650662 L92.1784021,16.2650662 L92.1784021,16.6736872 L95.6595389,16.6736872 L95.6595389,16.2650662 L95.4493916,16.2650662 C94.8311319,16.2650662 94.676567,15.8632936 94.3583004,14.871798 L94.3583004,14.871798 Z" id="Fill-62"></path>
                <path d="M100.311258,11.6057977 L100.081314,11.5091592 C99.0183944,11.0624915 98.4336365,10.8167102 98.4336365,9.9781621 C98.4336365,9.30473644 98.9551979,8.83600175 99.7021347,8.83600175 C100.707187,8.83600175 101.593461,9.75673061 102.057156,11.3219697 L102.416538,11.3219697 L102.416538,8.49586472 L102.05944,8.49586472 C101.949036,8.71957901 101.844724,9.07113003 101.650566,9.07113003 C101.45184,9.07113003 100.718608,8.3452 99.534626,8.3452 C98.2227277,8.3452 97.1963558,9.36637201 97.1963558,10.6683283 C97.1963558,11.9291942 97.9737488,12.4938064 99.4067102,13.0918997 C100.819875,13.6854274 101.619349,14.0704595 101.619349,15.0764128 C101.619349,15.8175615 101.094742,16.334235 100.341714,16.334235 C99.1021488,16.334235 98.0620716,15.233165 97.6729944,13.4792146 L97.2702119,13.4792146 L97.2176751,16.6736111 L97.6166505,16.6736111 C97.7384751,16.3852175 97.8542084,16.0070338 98.0986189,16.0070338 C98.3422681,16.0070338 99.0450435,16.8585178 100.351612,16.8585178 C101.819598,16.8585178 102.846731,15.7901679 102.846731,14.2599318 C102.846731,12.7471971 101.930763,12.2868327 100.311258,11.6057977" id="Fill-64"></path>
                <path d="M82.3215768,14.3581682 C82.261426,14.1603257 80.5665418,8.54083586 80.5665418,8.54083586 L77.6777768,8.54083586 L77.6777768,8.9159758 L78.1902014,8.9159758 C78.5808014,8.9159758 78.6942505,9.0590312 78.6942505,9.55211574 L78.6942505,14.4327397 C78.6942505,15.7346959 78.6104961,16.2658271 77.7820891,16.2658271 L77.6671172,16.2658271 L77.6671172,16.6744481 L80.4165453,16.6744481 L80.4165453,16.2658271 C79.3132716,16.2658271 79.2546435,15.7651332 79.2546435,14.3520808 L79.2546435,9.22339271 C79.3726611,9.60766385 81.5563663,16.743693 81.5563663,16.743693 L82.2012751,16.743693 C82.2012751,16.743693 84.2395523,9.70962886 84.3568084,9.30329067 L84.3568084,15.6296872 C84.3568084,16.1235327 84.2441207,16.2658271 83.8542821,16.2658271 L83.3403347,16.2658271 L83.3403347,16.6744481 L86.8412681,16.6744481 L86.8412681,16.2658271 L86.3265593,16.2658271 C85.9374821,16.2658271 85.824033,16.1235327 85.824033,15.6296872 L85.824033,9.55211574 C85.824033,9.0590312 85.9374821,8.9159758 86.3265593,8.9159758 L86.8412681,8.9159758 L86.8412681,8.54083586 L84.0149382,8.54083586 C84.0149382,8.54083586 82.3786821,14.1595647 82.3215768,14.3581682" id="Fill-66"></path>
                <path d="M57.6728133,14.3581682 C57.6126625,14.1603257 55.9177782,8.54083586 55.9177782,8.54083586 L53.0290133,8.54083586 L53.0290133,8.9159758 L53.5421993,8.9159758 C53.9320379,8.9159758 54.045487,9.0590312 54.045487,9.55211574 L54.045487,14.4327397 C54.045487,15.7346959 53.9617326,16.2658271 53.1333256,16.2658271 L53.0183537,16.2658271 L53.0183537,16.6744481 L55.7677818,16.6744481 L55.7677818,16.2658271 C54.6645081,16.2658271 54.60588,15.7651332 54.60588,14.3520808 L54.60588,9.22339271 C54.7238975,9.60766385 56.9091256,16.743693 56.9091256,16.743693 L57.5525116,16.743693 C57.5525116,16.743693 59.5907888,9.70962886 59.7080449,9.30329067 L59.7080449,15.6296872 C59.7080449,16.1235327 59.5953572,16.2658271 59.20628,16.2658271 L58.6915712,16.2658271 L58.6915712,16.6744481 L62.193266,16.6744481 L62.193266,16.2658271 L61.6793186,16.2658271 C61.2887186,16.2658271 61.1752695,16.1235327 61.1752695,15.6296872 L61.1752695,9.55211574 C61.1752695,9.0590312 61.2887186,8.9159758 61.6793186,8.9159758 L62.193266,8.9159758 L62.193266,8.54083586 L59.3661747,8.54083586 C59.3661747,8.54083586 57.7299186,14.1595647 57.6728133,14.3581682" id="Fill-68"></path>
                <path d="M108.193231,16.3800431 C106.995543,16.3800431 106.486164,15.247014 106.486164,12.5905971 C106.486164,9.92657085 106.995543,8.78973703 108.193231,8.78973703 C109.397009,8.78973703 109.910957,9.92657085 109.910957,12.5905971 C109.910957,15.247014 109.397009,16.3800431 108.193231,16.3800431 M108.193231,8.34535219 C106.314848,8.34535219 104.723515,10.0277749 104.723515,12.6020111 C104.723515,15.0027545 106.199876,16.85867 108.193231,16.85867 C110.175925,16.85867 111.672845,15.0293872 111.672845,12.6020111 C111.672845,10.1753959 110.175925,8.34535219 108.193231,8.34535219" id="Fill-70"></path>
                <path d="M118.020133,8.54212945 L118.020133,8.91346472 C119.175182,8.8944414 119.194978,9.58460758 119.194978,10.8416688 L119.194978,14.4774064 C119.080768,14.2818466 115.71308,8.54212945 115.71308,8.54212945 L113.269736,8.54212945 L113.269736,8.91650845 L113.783684,8.91650845 C114.173522,8.91650845 114.285448,9.05956385 114.285448,9.5526484 L114.285448,14.4332723 C114.285448,15.7352286 114.203217,16.2655988 113.37481,16.2655988 L113.259838,16.2655988 L113.259838,16.6749808 L116.010027,16.6749808 L116.010027,16.2671207 C114.906754,16.2671207 114.845841,15.7664268 114.845841,14.3533743 L114.845841,10.0708437 C114.960813,10.2656426 118.757933,16.6749808 118.757933,16.6749808 L119.74395,16.6749808 L119.74395,10.7503569 C119.74395,9.45524898 119.79268,8.91346472 120.771845,8.91346472 L120.771845,8.54212945 L118.020133,8.54212945 Z" id="Fill-72"></path>
                <path d="M68.3499747,15.7949618 C67.7827291,15.5780959 67.3860379,14.9389122 67.3860379,14.2403758 C67.3860379,13.6202155 67.6045607,13.1773525 68.1847502,12.7344895 C68.3705326,13.1773525 68.5905782,13.636956 68.8403186,14.0813408 C69.0725467,14.4968102 69.4022344,15.0256586 69.8042554,15.5065682 C69.2971607,15.8634458 68.7953958,15.9646499 68.3499747,15.7949618 L68.3499747,15.7949618 Z M69.3923361,8.9579793 C69.8088239,8.9579793 70.0768379,9.33159738 70.0768379,9.90838455 C70.0768379,10.6396411 69.6725326,11.1608802 69.1570625,11.5405857 C68.8753432,10.8937927 68.6994589,10.3078743 68.6994589,9.90838455 C68.6994589,9.33996764 68.9781326,8.9579793 69.3923361,8.9579793 L69.3923361,8.9579793 Z M73.7407116,14.2335274 L73.2709256,14.2335274 L73.2709256,14.2403758 C73.2709256,15.0903379 72.9305782,15.6846265 72.4440414,15.6846265 C72.1181607,15.6846265 71.6864449,15.3581863 71.231887,14.8552096 C71.665887,14.2342883 71.9970975,13.5745595 72.2278028,13.0472329 C72.5826168,12.2330347 72.8491081,11.8693087 73.477266,11.8693087 L73.477266,11.5162359 L71.1679291,11.5162359 L71.1679291,11.8693087 C71.5196975,11.8693087 71.7755291,12.058781 71.7755291,12.3760901 C71.7755291,12.9300493 71.3598028,13.7373991 70.8618449,14.4146294 C70.3220098,13.7252242 69.7821747,12.8478685 69.3771081,12.0169297 C70.4095712,11.4195974 70.8580379,10.800198 70.8580379,9.98676064 C70.8580379,9.04929125 70.2070379,8.39488892 69.27508,8.39488892 C68.2357642,8.39488892 67.5093853,9.18930292 67.5093853,10.3268977 C67.5093853,10.7020376 67.6738484,11.3868773 67.9639432,12.1767257 L67.9578519,12.1797694 C66.6885923,12.6926382 66.0467291,13.5372738 66.0467291,14.6862825 C66.0467291,16.0004137 66.8667607,16.8488539 68.1337361,16.8488539 C68.9499607,16.8488539 69.6519747,16.4942592 70.2428239,15.9791076 C70.7522028,16.4699093 71.3438133,16.8321134 71.9833923,16.8321134 C72.4021642,16.8321134 72.7813432,16.6692738 73.0775291,16.360335 C73.5275186,15.8908394 73.7764975,15.0987082 73.7407116,14.2396149 L73.7407116,14.2335274 Z" id="Fill-74"></path>
                <path d="M174.274832,14.8414367 C174.249706,16.3754776 174.249706,17.6599324 173.138818,18.8576408 C172.139856,19.9427312 170.60639,20.5286496 169.145256,20.5286496 C166.274765,20.5286496 163.954007,18.7571977 163.954007,15.7400985 C163.954007,12.671256 166.21233,10.8252327 169.171144,10.8252327 C170.805878,10.8252327 173.051256,11.6363872 173.787534,13.2457603 L170.592685,14.4168362 C170.331523,13.9435359 169.844225,13.6939499 169.294492,13.6939499 C168.071678,13.6939499 167.397835,14.7425155 167.397835,15.8770665 C167.397835,16.9126962 168.048074,17.8851685 169.1582,17.8851685 C169.69499,17.8851685 170.381014,17.6363434 170.543955,17.0618391 L168.996021,17.0618391 L168.996021,14.8414367 L174.274832,14.8414367 Z" id="Fill-76"></path>
                <path d="M177.594399,15.7515886 C177.594399,16.825265 178.316209,17.5610872 179.353241,17.5610872 C180.389511,17.5610872 181.112845,16.825265 181.112845,15.7515886 C181.112845,14.7540055 180.438241,13.9185012 179.353241,13.9185012 C178.269002,13.9185012 177.594399,14.7540055 177.594399,15.7515886 M184.557434,15.702128 C184.557434,18.720749 182.223732,20.5287257 179.353241,20.5287257 C176.483511,20.5287257 174.149048,18.720749 174.149048,15.702128 C174.149048,12.7459035 176.494932,10.8253087 179.353241,10.8253087 C182.21155,10.8253087 184.557434,12.7459035 184.557434,15.702128" id="Fill-78"></path>
                <path d="M187.902584,15.1414726 L188.139381,15.1414726 C188.700535,15.1414726 189.261689,15.0539653 189.261689,14.3554289 C189.261689,13.6317816 188.750026,13.5442743 188.163746,13.5442743 L187.902584,13.5442743 L187.902584,15.1414726 Z M184.557739,10.9761257 L188.688353,10.9761257 C190.810384,10.9761257 192.606535,11.8732656 192.606535,14.2420499 C192.606535,15.6642335 192.056802,16.2638487 190.785258,16.6869274 L190.785258,16.7622598 C190.959619,16.8999886 191.172051,17.0498924 191.357833,17.3230673 L193.405247,20.379735 L189.461939,20.379735 L187.964258,17.361114 L187.902584,17.361114 L187.902584,20.379735 L184.557739,20.379735 L184.557739,10.9761257 Z" id="Fill-80"></path>
                <path d="M196.70083,17.5612394 L196.9125,17.5612394 C198.048514,17.5612394 198.922606,17.0369566 198.922606,15.8027233 C198.922606,14.4802219 198.161202,13.9178924 196.9125,13.9178924 L196.70083,13.9178924 L196.70083,17.5612394 Z M193.280606,10.9761257 L196.763265,10.9761257 C199.920806,10.9761257 202.341307,12.3595017 202.341307,15.8133764 C202.341307,18.6082831 200.370034,20.379735 197.612992,20.379735 L193.280606,20.379735 L193.280606,10.9761257 Z" id="Fill-82"></path>
                <path d="M205.722853,15.7515886 C205.722853,16.825265 206.446947,17.5610872 207.483218,17.5610872 C208.518726,17.5610872 209.24206,16.825265 209.24206,15.7515886 C209.24206,14.7540055 208.568979,13.9185012 207.483218,13.9185012 C206.397456,13.9185012 205.722853,14.7540055 205.722853,15.7515886 M212.685888,15.702128 C212.685888,18.720749 210.352186,20.5287257 207.483218,20.5287257 C204.611965,20.5287257 202.278263,18.720749 202.278263,15.702128 C202.278263,12.7459035 204.624909,10.8253087 207.483218,10.8253087 C210.340004,10.8253087 212.685888,12.7459035 212.685888,15.702128" id="Fill-84"></path>
                <path d="M212.636092,10.9758213 L215.917741,10.9758213 L218.98772,16.188212 L219.088225,16.188212 C218.950411,15.4036901 218.800415,14.5917746 218.800415,13.7943169 L218.800415,10.9758213 L222.069881,10.9758213 L222.069881,20.3794306 L218.800415,20.3794306 L215.793632,15.4402149 L215.693127,15.4402149 C215.805815,16.0885297 215.905559,16.7003198 215.905559,17.3235239 L215.905559,20.3794306 L212.636092,20.3794306 L212.636092,10.9758213 Z" id="Fill-86"></path>
                <path d="M232.105789,15.1414726 L232.343347,15.1414726 C232.90374,15.1414726 233.466417,15.0539653 233.466417,14.3554289 C233.466417,13.6317816 232.955515,13.5442743 232.368473,13.5442743 L232.105789,13.5442743 L232.105789,15.1414726 Z M228.760943,10.9761257 L232.89308,10.9761257 C235.013589,10.9761257 236.810501,11.8732656 236.810501,14.2420499 C236.810501,15.6642335 236.261529,16.2638487 234.989224,16.6869274 L234.989224,16.7622598 C235.162824,16.8999886 235.375255,17.0498924 235.562561,17.3230673 L237.609975,20.379735 L233.665905,20.379735 L232.167462,17.361114 L232.105789,17.361114 L232.105789,20.379735 L228.760943,20.379735 L228.760943,10.9761257 Z" id="Fill-88"></path>
                <path d="M242.988377,16.9750927 L242.590163,15.3162589 C242.489658,14.9160082 242.427222,14.5043434 242.365549,14.1056146 L242.240679,14.1056146 L241.615566,16.9750927 L242.988377,16.9750927 Z M240.730054,20.3795067 L237.111103,20.3795067 L240.38057,10.9758974 L244.1617,10.9758974 L247.518728,20.3795067 L243.899777,20.3795067 L243.588363,19.206909 L241.004159,19.206909 L240.730054,20.3795067 Z" id="Fill-90"></path>
                <path d="M248.868087,10.9758213 L252.388055,10.9758213 L253.686248,15.9135152 L253.773048,15.9135152 C253.835484,15.5026114 253.897157,15.0665968 254.009084,14.6663461 L255.071241,10.9758213 L258.55314,10.9758213 L260.09955,20.3794306 L256.793536,20.3794306 L256.330603,15.2286755 L256.268929,15.2286755 C256.206494,15.5398971 256.14482,15.8640545 256.042792,16.1631012 L254.682926,20.3794306 L252.687287,20.3794306 L251.463712,16.4005122 C251.364729,16.0010224 251.276406,15.6281653 251.25128,15.2286755 L251.139354,15.2286755 C251.114227,15.6022936 251.089101,15.9896085 251.052554,16.3632265 L250.652055,20.3794306 L247.346041,20.3794306 L248.868087,10.9758213 Z" id="Fill-92"></path>
                <path d="M261.310791,17.0116936 L261.485914,17.1494224 C262.098082,17.6227227 262.834359,18.0092767 263.620128,18.0092767 C263.958191,18.0092767 264.49498,17.8723087 264.49498,17.4484691 C264.49498,17.0246294 264.044991,16.9858219 263.733577,16.9241863 L263.046791,16.8001542 C261.712051,16.5627431 260.588219,15.7766994 260.588219,14.305816 C260.588219,12.0732388 262.621928,10.8245478 264.670103,10.8245478 C265.741398,10.8245478 266.728938,11.0870697 267.650998,11.6493991 L266.728938,14.05623 C266.141896,13.6567402 265.480236,13.3447577 264.742436,13.3447577 C264.444728,13.3447577 264.006921,13.4573758 264.006921,13.8431688 C264.006921,14.192437 264.432545,14.2426586 264.693707,14.305816 L265.468054,14.4800697 C266.914721,14.8042271 267.963935,15.5765741 267.963935,17.1737723 C267.963935,19.4185245 265.916521,20.5287257 263.882812,20.5287257 C262.697307,20.5287257 261.325258,20.2045682 260.264622,19.6681105 L261.310791,17.0116936 Z" id="Fill-94"></path>
                <path d="M273.305104,16.9750927 L272.905367,15.3162589 C272.806385,14.9160082 272.743188,14.5043434 272.681515,14.1056146 L272.557406,14.1056146 L271.933816,16.9750927 L273.305104,16.9750927 Z M271.04602,20.3795067 L267.427831,20.3795067 L270.696536,10.9758974 L274.477666,10.9758974 L277.835455,20.3795067 L274.216504,20.3795067 L273.905852,19.206909 L271.321648,19.206909 L271.04602,20.3795067 Z" id="Fill-96"></path>
                <path d="M278.798707,10.9758213 L279.845636,13.4313519 L279.946142,13.4313519 C280.045124,13.1330662 280.131924,12.8332586 280.257556,12.5471478 L280.931398,10.9758213 L284.774201,10.9758213 L281.55651,16.3267017 L281.55651,20.3794306 L278.211665,20.3794306 L278.211665,16.3267017 L274.929254,10.9758213 L278.798707,10.9758213 Z" id="Fill-98"></path>
            </g>
        </g>
    </g>
</svg>