<?xml version="1.0" encoding="UTF-8"?>
<svg width="25px" height="25px" viewBox="0 0 25 25" version="1.1" xmlns="http://www.w3.org/2000/svg" xmlns:xlink="http://www.w3.org/1999/xlink">
    <!-- Generator: Sketch 53.2 (72643) - https://sketchapp.com -->
    <title>Twitter</title>
    <desc>Created with Sketch.</desc>
    <g id="Twitter" stroke="none" stroke-width="1" fill="none" fill-rule="evenodd">
        <path d="M12.5546154,9.468303 C12.1730769,7.28214915 13.4376923,5.41522608 15.5330769,5.05676454 C16.6538462,4.86522608 17.6723077,5.15907223 18.5215385,5.928303 C18.7223077,6.11061069 18.8930769,6.15137992 19.1330769,6.06214915 C19.7630769,5.828303 20.3961538,5.60368761 21.0353846,5.37214915 C20.7969231,6.13907223 20.2776923,6.72984146 19.6530769,7.29214915 C20.2584615,7.12522608 20.8638462,6.958303 21.5161538,6.778303 C21.1123077,7.37214915 20.6753846,7.89137992 20.1207692,8.29676454 C19.8446154,8.49907223 19.7476923,8.72214915 19.74,9.07445685 C19.6592308,12.7736876 18.1130769,15.7144568 15.0461538,17.7898415 C13.0146154,19.1644568 10.72,19.5729184 8.29923077,19.3313799 C6.87307692,19.1890722 5.54384615,18.7452261 4.30153846,18.0359953 C4.19923077,17.9775338 4.10230769,17.9106107 4,17.8121492 C5.88538462,17.9106107 7.60307692,17.4659953 9.17384615,16.2913799 C7.54153846,16.1021492 6.43538462,15.2990722 5.83461538,13.7490722 L7.29615385,13.7490722 C5.61846154,13.1013799 4.66384615,11.9536876 4.55692308,10.1267645 C5.06538462,10.2713799 5.54230769,10.4075338 6.01846154,10.5429184 C6.04,10.5229184 6.06153846,10.5029184 6.08307692,10.4821492 C4.55538462,9.12984146 4.17307692,7.55291838 5.07384615,5.658303 C7.05769231,7.98291838 9.51769231,9.24137992 12.5546154,9.468303" id="Fill-8" fill="#FEFEFE"></path>
    </g>
</svg>